<?xml version="1.0" encoding="utf-8"?>
<!-- Generator: Adobe Illustrator 23.1.1, SVG Export Plug-In . SVG Version: 6.00 Build 0)  -->
<svg version="1.1" id="Layer_1" xmlns="http://www.w3.org/2000/svg" xmlns:xlink="http://www.w3.org/1999/xlink" x="0px" y="0px"
	 viewBox="0 0 170.08 198.43" style="enable-background:new 0 0 170.08 198.43;" xml:space="preserve">
<style type="text/css">
	.st0{fill:#604E00;stroke:#000000;stroke-width:2;stroke-miterlimit:10;}
	.st1{fill:#FFEFAE;stroke:#000000;stroke-width:2;stroke-linecap:round;stroke-linejoin:round;stroke-miterlimit:10;}
	.st2{fill:none;stroke:#000000;stroke-width:2;stroke-linecap:round;stroke-linejoin:round;stroke-miterlimit:10;}
	.st3{fill:none;stroke:#000000;stroke-width:2;stroke-linecap:round;stroke-miterlimit:10;}
	.st4{fill:#FFFFFF;stroke:#000000;stroke-width:2.5;stroke-linecap:round;stroke-linejoin:round;stroke-miterlimit:10;}
	.st5{fill:#3D2E00;stroke:#000000;stroke-linecap:round;stroke-miterlimit:10;}
	.st6{fill:#FFEFAE;stroke:#000000;stroke-width:2.5;stroke-linecap:round;stroke-linejoin:round;stroke-miterlimit:10;}
	.st7{fill:none;stroke:#604E00;stroke-width:3;stroke-linecap:round;stroke-linejoin:round;stroke-miterlimit:10;}
	.st8{fill:#FFEFAE;stroke:#000000;stroke-width:2;stroke-miterlimit:10;}
	.st9{fill:#604E00;}
	.st10{fill:none;stroke:#000000;stroke-linecap:round;stroke-linejoin:round;stroke-miterlimit:10;}
</style>
<ellipse id="Hair" class="st0" cx="86.39" cy="97.6" rx="64.61" ry="83.02"/>
<ellipse id="Head" class="st1" cx="86.39" cy="105.26" rx="62.77" ry="80.66"/>
<path id="Nose" class="st2" d="M78.56,113.65c7.57,7.57,7.9,7.76,15.66,0"/>
<path id="Mouth" class="st3" d="M59.5,135.64c29.23,5.97,29.23,5.97,53.68,0"/>
<g id="Eye_Right">
	<path class="st4" d="M78.56,81.9c0,8.67-7.02,15.69-15.69,15.69c-8.67,0-15.69-7.02-15.69-15.69C47.18,81.9,51.71,77.53,78.56,81.9
		z"/>
	<circle class="st5" cx="62.86" cy="85.41" r="6.66"/>
	<path class="st6" d="M78.56,81.9c-26.85-4.37-31.38,0-31.38,0c0-8.67,7.02-15.69,15.69-15.69C71.54,66.21,78.56,73.23,78.56,81.9z"
		/>
	<path class="st7" d="M81.52,63.21c-9.1-9.1-25.53-8.81-34.34,0"/>
</g>
<g id="Eye_Left">
	<path class="st4" d="M125.61,81.9c0,8.67-7.02,15.69-15.69,15.69S94.23,90.57,94.23,81.9C106.4,78.75,118.26,79.05,125.61,81.9z"/>
	<circle class="st5" cx="109.92" cy="85.41" r="6.66"/>
	<path class="st6" d="M125.61,81.9c-7.35-2.85-19.21-3.15-31.38,0c0-8.67,7.02-15.69,15.69-15.69S125.61,73.23,125.61,81.9z"/>
	<path class="st7" d="M127.09,63.21c-9.1-9.1-25.53-8.81-34.34,0"/>
</g>
<ellipse id="Ear_Left" class="st8" cx="155.54" cy="101.87" rx="6.69" ry="19.97"/>
<ellipse id="Ear_Right" class="st8" cx="16.93" cy="101.87" rx="6.69" ry="19.97"/>
<g id="Hair_1_">
	<path class="st9" d="M20.82,105.84c0-47.59,29.36-86.17,65.58-86.17c36.22,0,65.58,38.58,65.58,86.17c0,7.41-0.71,14.6-2.05,21.46
		c2.57-9.38,3.97-19.48,3.97-30.02c0-48.99-30.22-88.7-67.51-88.7S18.9,48.29,18.9,97.28c0,10.54,1.41,20.64,3.97,30.02
		C21.53,120.44,20.82,113.25,20.82,105.84z"/>
	<path class="st9" d="M22.22,108.23c0-46.57,28.73-84.32,64.18-84.32c35.44,0,64.18,37.75,64.18,84.32c0,7.25-0.7,14.28-2.01,21
		c2.51-9.18,3.89-19.06,3.89-29.38c0-47.94-29.58-86.79-66.06-86.79S20.34,51.92,20.34,99.85c0,10.31,1.38,20.2,3.89,29.38
		C22.92,122.51,22.22,115.48,22.22,108.23z"/>
	<path class="st9" d="M25.31,110.59c0-44.7,27.58-80.94,61.6-80.94c34.02,0,61.6,36.24,61.6,80.94c0,6.96-0.67,13.71-1.93,20.15
		c2.41-8.81,3.73-18.3,3.73-28.2c0-46.01-28.39-83.31-63.41-83.31S23.5,56.54,23.5,102.55c0,9.9,1.32,19.39,3.73,28.2
		C25.98,124.3,25.31,117.55,25.31,110.59z"/>
</g>
<path class="st10" d="M60.35,144c22.17,4.13,29.08,4.5,52.36,0"/>
<path class="st10" d="M81.52,132.47c4.41,2.33,4.8,2.33,7.91,0"/>
<path class="st1" d="M114.83,133.35c0.74,4.92,2.98,6.02,4.66,6.77"/>
<path class="st1" d="M57.74,133.35c-1.21,4.63-1.55,4.76-4.15,6.77"/>
</svg>
